<svg width="56" height="417" viewBox="0 0 56 417" fill="none" xmlns="http://www.w3.org/2000/svg">
    <path d="M17.9 37.287 2 43.062v7.425l53.4-20.325v-9.375L2 .537v7.35l15.9 5.85v23.55zm6.075-2.25V15.912l4.875 1.8c7.425 2.7 14.325 5.175 21.75 7.725v.15c-7.425 2.55-14.325 5.025-21.75 7.725l-4.875 1.725zM34.85 75.972H55.4v-6.6H2v6.525h5.55v.15C3.575 78.072 1.1 82.572 1.1 87.672c0 9.75 7.875 15.975 20.025 15.975 12.15 0 19.95-6.225 19.95-15.9 0-5.1-2.4-9.525-6.225-11.625v-.15zm.9 10.05c0 6.525-5.7 10.725-14.625 10.725s-14.7-4.2-14.7-10.725c0-6.3 5.625-10.35 14.7-10.35 9 0 14.625 4.05 14.625 10.35zm5.4 55.345c0-11.175-7.65-18.075-20.1-18.075-12.45 0-20.1 6.9-20.1 18.075 0 11.175 7.65 18.15 20.1 18.15 12.45 0 20.1-6.975 20.1-18.15zm-5.4 0c0 6.975-5.625 11.25-14.7 11.25s-14.7-4.275-14.7-11.25c0-6.9 5.625-11.175 14.7-11.175s14.7 4.275 14.7 11.175zM1.175 194.575c0 5.1 2.325 9.3 5.85 11.625v.15H2v6.375h38.1v-6.6H18.275c-7.65 0-11.7-4.575-11.7-9.9 0-5.475 2.85-8.775 10.8-8.775H40.1v-6.6H16.85c-10.425 0-15.675 5.025-15.675 13.725zm6 56.037c0-3.825 1.8-5.25 6.15-5.25H34.85v7.575h5.25v-7.575h9.225v-6.6H40.1v-6.6h-5.25v6.6h-22.2c-7.875 0-10.95 3.075-10.95 10.35 0 1.35.15 3.075.45 4.2h5.4c-.225-.675-.375-1.725-.375-2.7zm-6 66.734c0 5.1 2.325 9.3 5.85 11.625v.15H2v6.375h38.1v-6.6H18.275c-7.65 0-11.7-4.575-11.7-9.9 0-5.475 2.85-8.775 10.8-8.775H40.1v-6.6H16.85c-10.425 0-15.675 5.025-15.675 13.725zm39.975 54.688c0-8.325-4.5-14.1-11.025-14.1-8.325 0-9.6 6.525-11.175 12.9-1.8 7.35-2.625 10.5-7.05 10.5-3.45 0-5.7-3.3-5.7-8.25 0-5.925 3-9.375 8.475-9.375v-6.675c-8.925.075-13.725 6-13.725 15.975 0 9.225 4.575 15.075 11.4 15.075 8.85 0 10.425-7.425 12.15-14.4 1.5-6.375 2.175-9.15 6.15-9.15 3.3 0 5.4 2.85 5.4 7.425 0 5.325-2.775 8.475-7.875 8.475v6.45c8.4 0 12.975-5.55 12.975-14.85zM2 416.444h8.775v-8.1H2v8.1z" fill="#9BAFBF"/>
</svg>
