<svg width="120" height="143" viewBox="0 0 120 143" fill="none" xmlns="http://www.w3.org/2000/svg">
    <g filter="url(#t21x7w1d9a)" fill="#5CB4F9">
        <path d="M60 33.846c7.137 0 12.923-5.786 12.923-12.923C72.923 13.786 67.137 8 60 8c-7.137 0-12.923 5.786-12.923 12.923 0 7.137 5.786 12.923 12.923 12.923zM101.769 37.539H18.231a6.23 6.23 0 1 0 0 12.461h23.51c1.595 0 3.462.713 4.519 3.462 1.235 3.191.63 9.355-.131 14.13l-.997 5.642a.096.096 0 0 1-.028.08l-7.985 45.418a6.331 6.331 0 0 0 5.112 7.325 6.25 6.25 0 0 0 4.7-1.056 6.236 6.236 0 0 0 2.55-4.088L55 89.344s1.77-7.498 5.001-7.498c3.284 0 5.017 7.498 5.017 7.498l5.518 31.597a6.29 6.29 0 0 0 4.835 5.129 6.282 6.282 0 0 0 6.558-2.585 6.29 6.29 0 0 0 .98-4.759l-7.987-45.418a.103.103 0 0 0-.025-.08l-1-5.643c-.76-4.775-1.365-10.939-.13-14.13 1.052-2.742 2.979-3.462 4.449-3.462h23.554a6.23 6.23 0 0 0 4.406-10.636 6.23 6.23 0 0 0-4.406-1.825v.007z"/>
    </g>
    <defs>
        <filter id="t21x7w1d9a" x="0" y="0" width="120" height="142.221" filterUnits="userSpaceOnUse" color-interpolation-filters="sRGB">
            <feFlood flood-opacity="0" result="BackgroundImageFix"/>
            <feColorMatrix in="SourceAlpha" values="0 0 0 0 0 0 0 0 0 0 0 0 0 0 0 0 0 0 127 0" result="hardAlpha"/>
            <feOffset dy="4"/>
            <feGaussianBlur stdDeviation="6"/>
            <feComposite in2="hardAlpha" operator="out"/>
            <feColorMatrix values="0 0 0 0 0.360784 0 0 0 0 0.705882 0 0 0 0 0.976471 0 0 0 1 0"/>
            <feBlend in2="BackgroundImageFix" result="effect1_dropShadow_205_79"/>
            <feBlend in="SourceGraphic" in2="effect1_dropShadow_205_79" result="shape"/>
        </filter>
    </defs>
</svg>
