<svg width="61" height="355" viewBox="0 0 61 355" fill="none" xmlns="http://www.w3.org/2000/svg">
    <path d="M.92 329.559c0 15.44 11.28 24.96 29.6 24.96 18.4 0 29.6-9.44 29.6-24.72 0-13.44-8-22-20.72-23.2v7.68c8.64 1.12 14 7.04 14 15.52 0 10.56-8.64 17.04-22.88 17.04-14.24 0-22.88-6.56-22.88-17.28 0-8.48 5.28-14.32 13.68-15.04v-7.6c-11.76.64-20.4 8.96-20.4 22.64zM59 275.923H2.04v7.04H59v-7.04zM9.96 242.792H2.04v7.04h7.92v-7.04zm49.04 0H18.36v7.04H59v-7.04zm-4.32-42.251c0 6.64-4.56 11.76-14.56 12.08v-30.4c-3.52 0-6.4.24-8.72.8-8.72 2.08-14.16 8.56-14.16 17.76 0 11.84 8.88 18.88 20.88 18.88 13.28 0 22-7.12 22-19.12 0-10.4-6.16-16.56-13.28-17.92v7.2c4.56.96 7.84 4.8 7.84 10.72zm-32 .24c0-6.24 4.16-10.88 12.08-11.6v23.36c-7.76-.72-12.08-5.28-12.08-11.76zm-5.2-60.945c0 5.44 2.48 9.84 6.24 12.32v.16h-5.36v6.8H59v-7.04H35.72c-8.16 0-12.48-4.8-12.48-10.56 0-5.84 3.04-9.36 11.52-9.36H59v-7.04H34.2c-11.12 0-16.72 5.44-16.72 14.72zm36-53.952c0 4.08-1.92 5.6-6.56 5.6H23.96v-8.08h-5.6v8.08H8.52v7.04h9.84v7.04h5.6v-7.04h23.68c8.4 0 11.68-3.28 11.68-11.04 0-1.44-.16-3.28-.48-4.48h-5.76c.24.72.4 1.84.4 2.88zM17.24 48.099c0 8.88 4.8 15.04 11.76 15.04 8.88 0 10.24-6.96 11.92-13.76 1.92-7.84 2.8-11.2 7.52-11.2 3.68 0 6.08 3.52 6.08 8.8 0 6.32-3.2 10-9.04 10v7.12c9.52-.08 14.64-6.4 14.64-17.04 0-9.84-4.88-16.08-12.16-16.08-9.44 0-11.12 7.92-12.96 15.36-1.6 6.8-2.32 9.76-6.56 9.76-3.52 0-5.76-3.04-5.76-7.92 0-5.68 2.96-9.04 8.4-9.04v-6.88c-8.96 0-13.84 5.92-13.84 15.84zM59 .727h-9.36v8.64H59V.727z" fill="#9BAFBF"/>
</svg>
