<svg width="144" height="123" viewBox="0 0 144 123" fill="none" xmlns="http://www.w3.org/2000/svg">
    <g filter="url(#kha2b5w9ja)">
        <path d="M127.714 21.546h-21.428v-7.478c0-.587-.482-1.068-1.072-1.068h-7.5c-.589 0-1.071.48-1.071 1.068v7.478H76.82v-7.478c0-.587-.482-1.068-1.071-1.068h-7.5c-.59 0-1.071.48-1.071 1.068v7.478H47.357v-7.478c0-.587-.482-1.068-1.071-1.068h-7.5c-.59 0-1.072.48-1.072 1.068v7.478H16.286A4.275 4.275 0 0 0 12 25.818v76.909A4.274 4.274 0 0 0 16.286 107h111.428a4.274 4.274 0 0 0 4.286-4.273V25.818a4.275 4.275 0 0 0-4.286-4.273zM60.214 83.5c0 .588-.482 1.068-1.071 1.068H34.5c-.59 0-1.071-.48-1.071-1.068v-6.41c0-.587.482-1.067 1.071-1.067h24.643c.59 0 1.071.48 1.071 1.068V83.5zm0-18.16c0 .588-.482 1.07-1.071 1.07H34.5c-.59 0-1.071-.482-1.071-1.07v-6.408c0-.588.482-1.068 1.071-1.068h24.643c.59 0 1.071.48 1.071 1.068v6.409zm50.157-12.19L88.272 83.687a2.127 2.127 0 0 1-1.727.882 2.133 2.133 0 0 1-1.728-.882L69.522 62.564c-.509-.708 0-1.696.87-1.696h7.354c.683 0 1.325.334 1.727.881l7.072 9.76 13.888-19.187a2.117 2.117 0 0 1 1.728-.88h7.339c.871.013 1.379 1 .871 1.708z" fill="#5CB4F9"/>
    </g>
    <defs>
        <filter id="kha2b5w9ja" x="0" y="5" width="144" height="118" filterUnits="userSpaceOnUse" color-interpolation-filters="sRGB">
            <feFlood flood-opacity="0" result="BackgroundImageFix"/>
            <feColorMatrix in="SourceAlpha" values="0 0 0 0 0 0 0 0 0 0 0 0 0 0 0 0 0 0 127 0" result="hardAlpha"/>
            <feOffset dy="4"/>
            <feGaussianBlur stdDeviation="6"/>
            <feComposite in2="hardAlpha" operator="out"/>
            <feColorMatrix values="0 0 0 0 0.360784 0 0 0 0 0.705882 0 0 0 0 0.976471 0 0 0 1 0"/>
            <feBlend in2="BackgroundImageFix" result="effect1_dropShadow_205_89"/>
            <feBlend in="SourceGraphic" in2="effect1_dropShadow_205_89" result="shape"/>
        </filter>
    </defs>
</svg>
