<svg width="141" height="135" viewBox="0 0 141 135" fill="none" xmlns="http://www.w3.org/2000/svg">
    <g filter="url(#2wmj5570wa)">
        <g filter="url(#yli4vdx76b)">
            <path d="M129 95.632a23.353 23.353 0 0 1-6.854 16.524A23.416 23.416 0 0 1 105.6 119H82.2a23.417 23.417 0 0 1-16.546-6.844A23.355 23.355 0 0 1 58.8 95.632V83.947H129v11.685zM23.7 8h58.5c3.103 0 6.079 1.231 8.273 3.422a11.676 11.676 0 0 1 3.427 8.262v52.58H47.1v29.21H23.7a11.707 11.707 0 0 1-8.273-3.422A11.676 11.676 0 0 1 12 89.788V19.684c0-3.099 1.233-6.07 3.427-8.262A11.708 11.708 0 0 1 23.7 8zm0 17.526v11.685h11.7V25.526H23.7zm58.5 11.685V25.526H47.1v11.685h35.1zM23.7 48.895v11.684h11.7V48.895H23.7zm23.4 0v11.684h35.1V48.895H47.1zM23.7 72.263v11.684h11.7V72.263H23.7z" fill="#5CB4F9"/>
        </g>
    </g>
    <defs>
        <filter id="2wmj5570wa" x="8" y="8" width="125" height="119" filterUnits="userSpaceOnUse" color-interpolation-filters="sRGB">
            <feFlood flood-opacity="0" result="BackgroundImageFix"/>
            <feColorMatrix in="SourceAlpha" values="0 0 0 0 0 0 0 0 0 0 0 0 0 0 0 0 0 0 127 0" result="hardAlpha"/>
            <feOffset dy="4"/>
            <feGaussianBlur stdDeviation="2"/>
            <feComposite in2="hardAlpha" operator="out"/>
            <feColorMatrix values="0 0 0 0 0 0 0 0 0 0 0 0 0 0 0 0 0 0 0.25 0"/>
            <feBlend in2="BackgroundImageFix" result="effect1_dropShadow_205_85"/>
            <feBlend in="SourceGraphic" in2="effect1_dropShadow_205_85" result="shape"/>
        </filter>
        <filter id="yli4vdx76b" x="0" y="0" width="141" height="135" filterUnits="userSpaceOnUse" color-interpolation-filters="sRGB">
            <feFlood flood-opacity="0" result="BackgroundImageFix"/>
            <feColorMatrix in="SourceAlpha" values="0 0 0 0 0 0 0 0 0 0 0 0 0 0 0 0 0 0 127 0" result="hardAlpha"/>
            <feOffset dy="4"/>
            <feGaussianBlur stdDeviation="6"/>
            <feComposite in2="hardAlpha" operator="out"/>
            <feColorMatrix values="0 0 0 0 0.360784 0 0 0 0 0.705882 0 0 0 0 0.976471 0 0 0 1 0"/>
            <feBlend in2="BackgroundImageFix" result="effect1_dropShadow_205_85"/>
            <feBlend in="SourceGraphic" in2="effect1_dropShadow_205_85" result="shape"/>
        </filter>
    </defs>
</svg>
