<svg width="100" height="100" viewBox="0 0 100 100" xmlns="http://www.w3.org/2000/svg">
    <defs>
        <filter x="-68.8%" y="-68.8%" width="237.5%" height="237.5%" filterUnits="objectBoundingBox" id="jmog9rtmua">
            <feOffset dy="4" in="SourceAlpha" result="shadowOffsetOuter1"/>
            <feGaussianBlur stdDeviation="5" in="shadowOffsetOuter1" result="shadowBlurOuter1"/>
            <feColorMatrix values="0 0 0 0 0 0 0 0 0 0 0 0 0 0 0 0 0 0 0.5 0" in="shadowBlurOuter1" result="shadowMatrixOuter1"/>
            <feMerge>
                <feMergeNode in="shadowMatrixOuter1"/>
                <feMergeNode in="SourceGraphic"/>
            </feMerge>
        </filter>
    </defs>
    <g filter="url(#jmog9rtmua)" transform="translate(26 26)" fill="none" fill-rule="evenodd">
        <path d="M24.002-3C31.438-3 38.189.029 43.08 4.92 47.97 9.81 51 16.56 51 23.998c0 7.44-3.03 14.19-7.919 19.08C38.19 47.972 31.44 51 24.001 51c-7.44 0-14.19-3.029-19.081-7.92C.029 38.19-3 31.438-3 23.998-3 16.56.029 9.808 4.92 4.918 9.81.028 16.562-3 24.002-3z" stroke="#FFF" stroke-width="6" fill="#FFF"/>
        <path stroke="#272727" stroke-width="3" fill="#272727" stroke-linecap="round" stroke-linejoin="round" d="m18 12 18 12-18 12z"/>
    </g>
</svg>
