<svg width="56" height="417" viewBox="0 0 56 417" fill="none" xmlns="http://www.w3.org/2000/svg">
    <path d="m2 54.981 53.4 12.45v-6.9l-21.6-5.025c-8.4-1.95-16.8-3.825-25.125-5.55v-.15c8.325-1.875 16.8-3.825 25.2-5.925l21.525-5.25v-9.6l-21.525-5.25c-8.4-2.1-16.875-4.05-25.2-5.925v-.15c8.325-1.8 16.725-3.6 25.125-5.55l21.6-5.025v-6.9L2 12.681v9.9l23.325 5.625a917.41 917.41 0 0 0 23.925 5.55v.15a917.41 917.41 0 0 0-23.925 5.55L2 45.081v9.9zm4.05 44.681c0-6.225 4.275-11.025 13.65-11.325v28.5c3.3 0 6-.225 8.175-.75 8.175-1.95 13.275-8.025 13.275-16.65 0-11.1-8.325-17.7-19.575-17.7C9.125 81.737.95 88.412.95 99.662c0 9.75 5.775 15.525 12.45 16.8v-6.75c-4.275-.9-7.35-4.5-7.35-10.05zm30-.225c0 5.85-3.9 10.2-11.325 10.875v-21.9c7.275.675 11.325 4.95 11.325 11.025zM2 145.097h53.4v-6.6H2v6.6zm39.15 39.611c0-11.025-7.725-17.925-20.1-17.925-12.375 0-20.1 6.9-20.1 17.925 0 9.3 6.375 15.525 15.075 16.275v-6.9c-5.475-.45-9.675-4.2-9.675-9.45 0-6.75 5.55-10.875 14.7-10.875 9.075 0 14.7 4.125 14.7 10.875 0 5.25-3.75 9-9.15 9.45v6.9c8.55-.75 14.55-7.125 14.55-16.275zm0 53.403c0-11.175-7.65-18.075-20.1-18.075-12.45 0-20.1 6.9-20.1 18.075 0 11.175 7.65 18.15 20.1 18.15 12.45 0 20.1-6.975 20.1-18.15zm-5.4 0c0 6.975-5.625 11.25-14.7 11.25s-14.7-4.275-14.7-11.25c0-6.9 5.625-11.175 14.7-11.175s14.7 4.275 14.7 11.175zm5.175 80.432c0-5.625-2.625-9.525-7.2-12.075 4.725-2.025 7.2-6.075 7.2-11.325 0-4.425-1.875-7.95-5.55-10.65v-.15H40.1v-6.375H2v6.6h21.15c7.65 0 12.375 3.45 12.375 9.075 0 4.875-3.525 7.725-9.525 7.725H2v6.6h21.6c7.275 0 11.925 3.45 11.925 9 0 4.875-2.85 7.8-10.5 7.8H2v6.6h23.55c10.275 0 15.375-4.725 15.375-12.825zM6.05 370.614c0-6.225 4.275-11.025 13.65-11.325v28.5c3.3 0 6-.225 8.175-.75 8.175-1.95 13.275-8.025 13.275-16.65 0-11.1-8.325-17.7-19.575-17.7-12.45 0-20.625 6.675-20.625 17.925 0 9.75 5.775 15.525 12.45 16.8v-6.75c-4.275-.9-7.35-4.5-7.35-10.05zm30-.225c0 5.85-3.9 10.2-11.325 10.875v-21.9c7.275.675 11.325 4.95 11.325 11.025zM2 416.125h8.775v-8.1H2v8.1z" fill="#9BAFBF"/>
</svg>
