<svg width="56" height="535" viewBox="0 0 56 535" fill="none" xmlns="http://www.w3.org/2000/svg">
    <path d="M54 479.451.6 467.001v6.9l21.6 5.025c8.4 1.95 16.8 3.825 25.125 5.55v.15c-8.325 1.875-16.8 3.825-25.2 5.925L.6 495.801v9.6l21.525 5.25c8.4 2.1 16.875 4.05 25.2 5.925v.15c-8.325 1.8-16.725 3.6-25.125 5.55L.6 527.301v6.9l53.4-12.45v-9.9l-23.325-5.625a917.41 917.41 0 0 0-23.925-5.55v-.15a917.41 917.41 0 0 0 23.925-5.55L54 489.351v-9.9zM20.7 441.05H.6v6.6H54v-6.6H32.175c-7.725 0-11.7-4.5-11.7-9.9 0-5.475 2.85-8.775 10.8-8.775H54v-6.6H30.75c-10.425 0-15.675 5.1-15.675 13.8 0 4.425 1.8 8.7 5.625 11.325v.15zm-5.85-64.663c0 11.175 7.65 18.075 20.1 18.075 12.45 0 20.1-6.9 20.1-18.075 0-11.175-7.65-18.15-20.1-18.15-12.45 0-20.1 6.975-20.1 18.15zm5.4 0c0-6.975 5.625-11.25 14.7-11.25s14.7 4.275 14.7 11.25c0 6.9-5.625 11.175-14.7 11.175s-14.7-4.275-14.7-11.175zM54 265.244l-38.1-10.125v6.675l15.9 4.05c5.625 1.425 11.475 2.85 17.1 4.2v.15a1819.582 1819.582 0 0 0-16.725 4.2l-16.275 4.35v9.45l16.275 4.35c5.55 1.5 11.25 2.925 16.725 4.2v.15a1418.969 1418.969 0 0 0-17.1 4.2l-15.9 4.05v6.675L54 301.694v-9.45l-16.5-4.5c-5.55-1.425-10.95-2.85-16.5-4.2v-.15c5.55-1.35 10.95-2.775 16.5-4.2l16.5-4.5v-9.45zm-4.05-44.145c0 6.225-4.275 11.025-13.65 11.325v-28.5c-3.3 0-6 .225-8.175.75-8.175 1.95-13.275 8.025-13.275 16.65 0 11.1 8.325 17.7 19.575 17.7 12.45 0 20.625-6.675 20.625-17.925 0-9.75-5.775-15.525-12.45-16.8v6.75c4.275.9 7.35 4.5 7.35 10.05zm-30 .225c0-5.85 3.9-10.2 11.325-10.875v21.9c-7.275-.675-11.325-4.95-11.325-11.025zm-5.1-82.67c0 9.675 5.475 14.925 12.675 15.3v-6.6c-4.5-.225-7.575-3.15-7.575-8.7 0-5.1 2.625-8.625 8.925-8.625h1.5c.225 3 .75 7.65 1.275 11.025 1.725 10.95 5.7 14.475 12 14.475 6.45 0 11.175-4.95 11.175-12.9 0-6.15-2.325-10.575-6.375-13.2v-.15c1.725 0 3.825-.15 5.55-.525v-6c-2.325.525-5.55.9-9.75.9H29.625c-10.05 0-14.775 5.7-14.775 15zm22.875-8.625c4.5 0 6.6.75 9 3.075 1.95 1.875 3 4.8 3 7.875 0 4.95-2.625 7.8-6.525 7.8-3.75 0-5.625-2.25-6.6-8.775-.525-2.925-.975-7.05-1.2-9.975h2.325zm-22.2-48.094c0 4.875 2.025 8.7 6.225 11.25v.15H15.9v6.3H54v-6.6H34.575c-8.4 0-13.05-4.05-13.05-11.25 0-.825.15-1.8.225-2.625h-5.925c-.225.825-.3 1.95-.3 2.775zM49.95 45.954c0 6.225-4.275 11.025-13.65 11.325v-28.5c-3.3 0-6 .225-8.175.75-8.175 1.95-13.275 8.025-13.275 16.65 0 11.1 8.325 17.7 19.575 17.7 12.45 0 20.625-6.675 20.625-17.925 0-9.75-5.775-15.525-12.45-16.8v6.75c4.275.9 7.35 4.5 7.35 10.05zm-30 .225c0-5.85 3.9-10.2 11.325-10.875v21.9C24 56.529 19.95 52.254 19.95 46.179zM54 .443h-8.775v8.1H54v-8.1z" fill="#9BAFBF"/>
</svg>
